<?xml version="1.0" encoding="UTF-8" standalone="no"?>
<!-- Created with Inkscape (http://www.inkscape.org/) -->

<svg
   xmlns:dc="http://purl.org/dc/elements/1.1/"
   xmlns:cc="http://creativecommons.org/ns#"
   xmlns:rdf="http://www.w3.org/1999/02/22-rdf-syntax-ns#"
   xmlns:svg="http://www.w3.org/2000/svg"
   xmlns="http://www.w3.org/2000/svg"
   xmlns:sodipodi="http://sodipodi.sourceforge.net/DTD/sodipodi-0.dtd"
   xmlns:inkscape="http://www.inkscape.org/namespaces/inkscape"
   width="32"
   height="32"
   id="svg2"
   version="1.1"
   inkscape:version="0.48.2 r9819"
   sodipodi:docname="method.svg">
  <defs
     id="defs4" />
  <sodipodi:namedview
     id="base"
     pagecolor="#ffffff"
     bordercolor="#666666"
     borderopacity="1.0"
     inkscape:pageopacity="0.0"
     inkscape:pageshadow="2"
     inkscape:zoom="4.3359375"
     inkscape:cx="64.014585"
     inkscape:cy="2.2559009"
     inkscape:document-units="px"
     inkscape:current-layer="layer1"
     showgrid="true"
     objecttolerance="10000"
     guidetolerance="10000"
     inkscape:window-width="1362"
     inkscape:window-height="724"
     inkscape:window-x="4"
     inkscape:window-y="0"
     inkscape:window-maximized="1">
    <inkscape:grid
       type="xygrid"
       id="grid2989"
       empspacing="5"
       visible="true"
       enabled="true"
       snapvisiblegridlinesonly="true"
       spacingx="1px"
       spacingy="1px"
       dotted="true" />
  </sodipodi:namedview>
  <metadata
     id="metadata7">
    <rdf:RDF>
      <cc:Work
         rdf:about="">
        <dc:format>image/svg+xml</dc:format>
        <dc:type
           rdf:resource="http://purl.org/dc/dcmitype/StillImage" />
        <dc:title></dc:title>
      </cc:Work>
    </rdf:RDF>
  </metadata>
  <g
     inkscape:label="Calque 1"
     inkscape:groupmode="layer"
     id="layer1"
     transform="translate(0,-1020.3622)">
    <path
       inkscape:connector-curvature="0"
       id="path3134"
       style="font-size:14.95112133px;font-style:normal;font-variant:normal;font-weight:bold;font-stretch:normal;text-align:center;line-height:125%;letter-spacing:0px;word-spacing:0px;text-anchor:middle;fill:#000000;fill-opacity:1;stroke:none;font-family:Arial;-inkscape-font-specification:Sans Bold"
       d="m 0.060506,1052.2896 0,-10.7024 3.467667,0 c 1.314058,0 2.170631,0.054 2.569724,0.1606 0.613222,0.1607 1.126679,0.5111 1.540374,1.0513 0.413678,0.5354 0.620521,1.2289 0.62053,2.0806 -9e-6,0.657 -0.119248,1.2094 -0.357717,1.6572 -0.238487,0.4477 -0.542668,0.8006 -0.912544,1.0585 -0.365025,0.2531 -0.737343,0.421 -1.116954,0.5037 -0.515898,0.1023 -1.262966,0.1534 -2.241208,0.1534 l -1.408968,0 0,4.0371 -2.160904,0 m 2.160904,-8.8919 0,3.037 1.182657,0 c 0.851703,0 1.421129,-0.056 1.708282,-0.1679 0.287141,-0.112 0.511018,-0.2872 0.671633,-0.5257 0.165468,-0.2384 0.248205,-0.5158 0.248212,-0.8322 -7e-6,-0.3893 -0.114379,-0.7106 -0.343117,-0.9637 -0.228751,-0.253 -0.518331,-0.4112 -0.868742,-0.4745 -0.257951,-0.049 -0.776275,-0.073 -1.554975,-0.073 l -1.04395,0" />
    <path
       inkscape:connector-curvature="0"
       style="fill:#000000;fill-opacity:1;stroke:none"
       d="m 1,1035.3622 30,0 c 0.554,0 1,0.446 1,1 0,0.554 -0.446,1 -1,1 l -30,0 c -0.554,0 -1,-0.446 -1,-1 0,-0.554 0.446,-1 1,-1 z"
       id="path3143" />
    <path
       inkscape:connector-curvature="0"
       style="fill:#000000;fill-opacity:1;stroke:none"
       d="m 23.92895,1027.8087 7.77817,7.7781 c 0.39174,0.3918 0.39174,1.0225 0,1.4143 -0.39174,0.3917 -1.02248,0.3917 -1.41421,0 l -7.77818,-7.7782 c -0.39173,-0.3918 -0.39173,-1.0225 0,-1.4142 0.39174,-0.3918 1.02248,-0.3918 1.41422,0 z"
       id="path3145" />
    <path
       inkscape:connector-curvature="0"
       style="fill:#000000;fill-opacity:1;stroke:none"
       d="m 23.92895,1044.8281 7.77817,-7.7782 c 0.39174,-0.3917 0.39174,-1.0225 0,-1.4142 -0.39174,-0.3917 -1.02248,-0.3917 -1.41421,0 l -7.77818,7.7782 c -0.39173,0.3917 -0.39173,1.0224 0,1.4142 0.39174,0.3917 1.02248,0.3917 1.41422,0 z"
       id="path3147" />
  </g>
</svg>
