<?xml version="1.0" encoding="UTF-8" standalone="no"?>
<!-- Created with Inkscape (http://www.inkscape.org/) -->

<svg
   xmlns:dc="http://purl.org/dc/elements/1.1/"
   xmlns:cc="http://creativecommons.org/ns#"
   xmlns:rdf="http://www.w3.org/1999/02/22-rdf-syntax-ns#"
   xmlns:svg="http://www.w3.org/2000/svg"
   xmlns="http://www.w3.org/2000/svg"
   xmlns:sodipodi="http://sodipodi.sourceforge.net/DTD/sodipodi-0.dtd"
   xmlns:inkscape="http://www.inkscape.org/namespaces/inkscape"
   width="32"
   height="32"
   id="svg2"
   version="1.1"
   inkscape:version="0.48.2 r9819"
   sodipodi:docname="private_bound_method.svg">
  <defs
     id="defs4" />
  <sodipodi:namedview
     id="base"
     pagecolor="#ffffff"
     bordercolor="#666666"
     borderopacity="1.0"
     inkscape:pageopacity="0.0"
     inkscape:pageshadow="2"
     inkscape:zoom="4.3359375"
     inkscape:cx="64.014585"
     inkscape:cy="-11.856106"
     inkscape:document-units="px"
     inkscape:current-layer="layer1"
     showgrid="true"
     objecttolerance="10000"
     guidetolerance="10000"
     inkscape:window-width="1362"
     inkscape:window-height="724"
     inkscape:window-x="4"
     inkscape:window-y="0"
     inkscape:window-maximized="1">
    <inkscape:grid
       type="xygrid"
       id="grid2989"
       empspacing="5"
       visible="true"
       enabled="true"
       snapvisiblegridlinesonly="true"
       spacingx="1px"
       spacingy="1px"
       dotted="true" />
  </sodipodi:namedview>
  <metadata
     id="metadata7">
    <rdf:RDF>
      <cc:Work
         rdf:about="">
        <dc:format>image/svg+xml</dc:format>
        <dc:type
           rdf:resource="http://purl.org/dc/dcmitype/StillImage" />
        <dc:title />
      </cc:Work>
    </rdf:RDF>
  </metadata>
  <g
     inkscape:label="Calque 1"
     inkscape:groupmode="layer"
     id="layer1"
     transform="translate(0,-1020.3622)">
    <path
       inkscape:connector-curvature="0"
       id="path2990"
       style="font-size:14.95112133px;font-style:normal;font-variant:normal;font-weight:bold;font-stretch:normal;text-align:center;line-height:125%;letter-spacing:0px;word-spacing:0px;text-anchor:middle;fill:#000000;fill-opacity:1;stroke:none;font-family:Arial;-inkscape-font-specification:Sans Bold"
       d="m 0.06050572,1052.2896 0,-10.7024 3.46766728,0 c 1.3140575,0 2.1706314,0.054 2.569724,0.1606 0.6132218,0.1607 1.1266794,0.5111 1.5403743,1.0513 0.4136776,0.5354 0.6205207,1.2289 0.62053,2.0806 -9.3e-6,0.657 -0.1192483,1.2094 -0.3577173,1.6572 -0.2384869,0.4477 -0.5426679,0.8006 -0.912544,1.0585 -0.3650253,0.2531 -0.7373429,0.421 -1.1169539,0.5037 -0.515898,0.1023 -1.2629666,0.1534 -2.2412081,0.1534 l -1.408968,0 0,4.0371 -2.16090428,0 m 2.16090428,-8.8919 0,3.037 1.182657,0 c 0.8517025,0 1.4211294,-0.056 1.7082825,-0.1679 0.2871407,-0.112 0.511018,-0.2872 0.6716324,-0.5257 0.1654676,-0.2384 0.2482049,-0.5158 0.2482119,-0.8322 -7e-6,-0.3893 -0.1143791,-0.7106 -0.3431165,-0.9637 -0.2287509,-0.253 -0.5183312,-0.4112 -0.8687419,-0.4745 -0.2579514,-0.049 -0.7762759,-0.073 -1.5549751,-0.073 l -1.0439503,0" />
    <path
       id="path3159"
       d="m 1,1032.3622 27,0 c 0.554,0 1,0.446 1,1 0,0.554 -0.446,1 -1,1 l -27,0 c -0.554,0 -1,-0.446 -1,-1 0,-0.554 0.446,-1 1,-1 z"
       style="fill:#000000;fill-opacity:1;stroke:none"
       inkscape:connector-curvature="0" />
    <path
       id="path3161"
       d="m 23.92894,1027.8087 7.77818,7.7781 c 0.39174,0.3918 0.39174,1.0225 0,1.4143 -0.39174,0.3917 -1.02248,0.3917 -1.41421,0 l -7.77818,-7.7782 c -0.39174,-0.3918 -0.39174,-1.0225 0,-1.4142 0.39174,-0.3918 1.02248,-0.3918 1.41421,0 z"
       style="fill:#000000;fill-opacity:1;stroke:none"
       inkscape:connector-curvature="0" />
    <path
       id="path3163"
       d="m 23.92894,1044.8281 7.77818,-7.7782 c 0.39174,-0.3917 0.39174,-1.0225 0,-1.4142 -0.39174,-0.3917 -1.02248,-0.3917 -1.41421,0 l -7.77818,7.7782 c -0.39174,0.3917 -0.39174,1.0224 0,1.4142 0.39174,0.3917 1.02248,0.3917 1.41421,0 z"
       style="fill:#000000;fill-opacity:1;stroke:none"
       inkscape:connector-curvature="0" />
    <path
       id="path3165"
       d="m 1,1038.3622 27,0 c 0.554,0 1,0.446 1,1 0,0.554 -0.446,1 -1,1 l -27,0 c -0.554,0 -1,-0.446 -1,-1 0,-0.554 0.446,-1 1,-1 z"
       style="fill:#000000;fill-opacity:1;stroke:none"
       inkscape:connector-curvature="0" />
  </g>
</svg>
