<?xml version="1.0" encoding="UTF-8" standalone="no"?>
<!-- Created with Inkscape (http://www.inkscape.org/) -->

<svg
   xmlns:dc="http://purl.org/dc/elements/1.1/"
   xmlns:cc="http://creativecommons.org/ns#"
   xmlns:rdf="http://www.w3.org/1999/02/22-rdf-syntax-ns#"
   xmlns:svg="http://www.w3.org/2000/svg"
   xmlns="http://www.w3.org/2000/svg"
   xmlns:sodipodi="http://sodipodi.sourceforge.net/DTD/sodipodi-0.dtd"
   xmlns:inkscape="http://www.inkscape.org/namespaces/inkscape"
   width="32"
   height="32"
   id="svg2"
   version="1.1"
   inkscape:version="0.48.2 r9819"
   sodipodi:docname="private_class.svg">
  <defs
     id="defs4" />
  <sodipodi:namedview
     id="base"
     pagecolor="#ffffff"
     bordercolor="#666666"
     borderopacity="1.0"
     inkscape:pageopacity="0.0"
     inkscape:pageshadow="2"
     inkscape:zoom="4.3359375"
     inkscape:cx="64.014585"
     inkscape:cy="25.044795"
     inkscape:document-units="px"
     inkscape:current-layer="layer1"
     showgrid="true"
     objecttolerance="10000"
     guidetolerance="10000"
     inkscape:window-width="1362"
     inkscape:window-height="724"
     inkscape:window-x="4"
     inkscape:window-y="0"
     inkscape:window-maximized="1">
    <inkscape:grid
       type="xygrid"
       id="grid2989"
       empspacing="5"
       visible="true"
       enabled="true"
       snapvisiblegridlinesonly="true"
       spacingx="1px"
       spacingy="1px"
       dotted="true" />
  </sodipodi:namedview>
  <metadata
     id="metadata7">
    <rdf:RDF>
      <cc:Work
         rdf:about="">
        <dc:format>image/svg+xml</dc:format>
        <dc:type
           rdf:resource="http://purl.org/dc/dcmitype/StillImage" />
        <dc:title></dc:title>
      </cc:Work>
    </rdf:RDF>
  </metadata>
  <g
     inkscape:label="Calque 1"
     inkscape:groupmode="layer"
     id="layer1"
     transform="translate(0,-1020.3622)">
    <path
       inkscape:connector-curvature="0"
       id="path3101"
       style="font-size:14.95112133px;font-style:normal;font-variant:normal;font-weight:bold;font-stretch:normal;text-align:center;line-height:125%;letter-spacing:0px;word-spacing:0px;text-anchor:middle;fill:#000000;fill-opacity:1;stroke:none;font-family:Arial;-inkscape-font-specification:Sans Bold"
       d="m 0.08377,1027.7257 2.1025,-0.2044 c 0.12654,0.7057 0.38205,1.2241 0.76654,1.555 0.38935,0.331 0.91254,0.4964 1.56958,0.4964 0.69596,0 1.21915,-0.146 1.56957,-0.438 0.35528,-0.2969 0.53292,-0.6424 0.53293,-1.0366 -10e-6,-0.2531 -0.0754,-0.4673 -0.22631,-0.6425 -0.14602,-0.18 -0.40396,-0.3358 -0.77384,-0.4672 -0.25308,-0.088 -0.82981,-0.2433 -1.73018,-0.4672 -1.15833,-0.2872 -1.9711,-0.64 -2.43832,-1.0586 -0.65703,-0.5889 -0.98555,-1.3067 -0.98555,-2.1536 0,-0.5451 0.15331,-1.0536 0.45992,-1.5258 0.31148,-0.4769 0.7568,-0.8395 1.33597,-1.0877 0.58402,-0.2482 1.28729,-0.3723 2.1098,-0.3723 1.34326,0 2.35314,0.2944 3.02965,0.8833 0.68135,0.5889 1.03907,1.3749 1.07315,2.358 l -2.16091,0.095 c -0.0925,-0.5499 -0.29202,-0.9441 -0.59863,-1.1826 -0.30175,-0.2433 -0.7568,-0.365 -1.36516,-0.365 -0.62784,0 -1.11939,0.129 -1.47467,0.3869 -0.22875,0.1655 -0.34312,0.3869 -0.34312,0.6643 0,0.2531 0.10707,0.4697 0.32122,0.6498 0.27254,0.2287 0.93444,0.4672 1.98569,0.7154 1.05125,0.2482 1.82752,0.5062 2.32881,0.7738 0.50615,0.2628 0.90037,0.6254 1.18266,1.0878 0.28714,0.4575 0.43071,1.0245 0.43072,1.701 -10e-6,0.6132 -0.17035,1.1875 -0.51102,1.7228 -0.34069,0.5354 -0.82252,0.9345 -1.44547,1.1973 -0.62297,0.2579 -1.39924,0.3869 -2.32881,0.3869 -1.35301,0 -2.39209,-0.3115 -3.11725,-0.9344 -0.72517,-0.6279 -1.15833,-1.5404 -1.29947,-2.7377" />
    <path
       inkscape:connector-curvature="0"
       id="path3097"
       style="font-size:14.95112133px;font-style:normal;font-variant:normal;font-weight:bold;font-stretch:normal;text-align:center;line-height:125%;letter-spacing:0px;word-spacing:0px;text-anchor:middle;fill:#000000;fill-opacity:1;stroke:none;font-family:Arial;-inkscape-font-specification:Sans Bold"
       d="m 0.0605,1052.2896 0,-10.7023 3.46767,0 c 1.31405,0 2.17063,0.053 2.56972,0.1606 0.61322,0.1606 1.12668,0.511 1.54037,1.0513 0.41368,0.5353 0.62052,1.2289 0.62053,2.0806 -10e-6,0.657 -0.11924,1.2094 -0.35771,1.6571 -0.23849,0.4478 -0.54267,0.8006 -0.91255,1.0586 -0.36502,0.2531 -0.73734,0.421 -1.11695,0.5037 -0.5159,0.1022 -1.26297,0.1533 -2.24121,0.1533 l -1.40897,0 0,4.0371 -2.1609,0 m 2.1609,-8.8918 0,3.0369 1.18266,0 c 0.8517,0 1.42113,-0.056 1.70828,-0.1679 0.28714,-0.1119 0.51102,-0.2871 0.67163,-0.5256 0.16547,-0.2385 0.24821,-0.5159 0.24822,-0.8322 -10e-6,-0.3894 -0.11438,-0.7106 -0.34312,-0.9637 -0.22875,-0.2531 -0.51833,-0.4112 -0.86874,-0.4745 -0.25795,-0.049 -0.77628,-0.073 -1.55498,-0.073 l -1.04395,0" />
    <path
       inkscape:connector-curvature="0"
       id="path3090"
       d="m 20,1024.3622 c -6.62742,0 -12,5.3726 -12,12 0,6.6274 5.37258,12 12,12 6.62742,0 12,-5.3726 12,-12 0,-6.6274 -5.37258,-12 -12,-12 z m 0.5,3.4063 c 1.99596,0 3.59718,0.6014 4.84375,1.7812 0.74198,0.6975 1.31649,1.6941 1.6875,3 L 23.75,1033.331 c -0.19293,-0.8459 -0.60291,-1.5103 -1.21875,-2 -0.60845,-0.4898 -1.3432,-0.75 -2.21875,-0.75 -1.20946,0 -2.18067,0.4443 -2.9375,1.3125 -0.74942,0.8681 -1.125,2.2747 -1.125,4.2187 0,2.0628 0.35175,3.5307 1.09375,4.4063 0.74199,0.8755 1.71905,1.3125 2.90625,1.3125 0.87555,0 1.61929,-0.2873 2.25,-0.8438 0.63068,-0.5565 1.10045,-1.4304 1.375,-2.625 l 3.1875,1 c -0.48973,1.7808 -1.29484,3.1318 -2.4375,4 -1.13526,0.8607 -2.59265,1.2813 -4.34375,1.2813 -2.16663,0 -3.9488,-0.7423 -5.34375,-2.2188 -1.39495,-1.484 -2.09375,-3.4952 -2.09375,-6.0625 0,-2.7157 0.72263,-4.8449 2.125,-6.3437 1.40237,-1.5063 3.2459,-2.25 5.53125,-2.25 z"
       style="fill:#000000;fill-opacity:1;stroke:none" />
  </g>
</svg>
