<?xml version="1.0" encoding="UTF-8" standalone="no"?>
<!-- Created with Inkscape (http://www.inkscape.org/) -->

<svg
   xmlns:dc="http://purl.org/dc/elements/1.1/"
   xmlns:cc="http://creativecommons.org/ns#"
   xmlns:rdf="http://www.w3.org/1999/02/22-rdf-syntax-ns#"
   xmlns:svg="http://www.w3.org/2000/svg"
   xmlns="http://www.w3.org/2000/svg"
   xmlns:sodipodi="http://sodipodi.sourceforge.net/DTD/sodipodi-0.dtd"
   xmlns:inkscape="http://www.inkscape.org/namespaces/inkscape"
   width="32"
   height="32"
   id="svg2"
   version="1.1"
   inkscape:version="0.48.2 r9819"
   sodipodi:docname="private_bound_method.svg">
  <defs
     id="defs4" />
  <sodipodi:namedview
     id="base"
     pagecolor="#ffffff"
     bordercolor="#666666"
     borderopacity="1.0"
     inkscape:pageopacity="0.0"
     inkscape:pageshadow="2"
     inkscape:zoom="4.3359375"
     inkscape:cx="64.014585"
     inkscape:cy="25.044795"
     inkscape:document-units="px"
     inkscape:current-layer="layer1"
     showgrid="true"
     objecttolerance="10000"
     guidetolerance="10000"
     inkscape:window-width="1362"
     inkscape:window-height="724"
     inkscape:window-x="4"
     inkscape:window-y="0"
     inkscape:window-maximized="1">
    <inkscape:grid
       type="xygrid"
       id="grid2989"
       empspacing="5"
       visible="true"
       enabled="true"
       snapvisiblegridlinesonly="true"
       spacingx="1px"
       spacingy="1px"
       dotted="true" />
  </sodipodi:namedview>
  <metadata
     id="metadata7">
    <rdf:RDF>
      <cc:Work
         rdf:about="">
        <dc:format>image/svg+xml</dc:format>
        <dc:type
           rdf:resource="http://purl.org/dc/dcmitype/StillImage" />
        <dc:title></dc:title>
      </cc:Work>
    </rdf:RDF>
  </metadata>
  <g
     inkscape:label="Calque 1"
     inkscape:groupmode="layer"
     id="layer1"
     transform="translate(0,-1020.3622)">
    <path
       inkscape:connector-curvature="0"
       id="path3082"
       style="font-size:14.95112133px;font-style:normal;font-variant:normal;font-weight:bold;font-stretch:normal;text-align:center;line-height:125%;letter-spacing:0px;word-spacing:0px;text-anchor:middle;fill:#000000;fill-opacity:1;stroke:none;font-family:Arial;-inkscape-font-specification:Sans Bold"
       d="m 0.08378008,1027.7257 2.10250142,-0.2044 c 0.1265367,0.7057 0.3820488,1.2241 0.766537,1.555 0.3893483,0.331 0.9125397,0.4964 1.5695757,0.4964 0.6959613,0 1.2191527,-0.146 1.5695758,-0.438 0.3552769,-0.2969 0.5329186,-0.6424 0.5329257,-1.0366 -7.1e-6,-0.2531 -0.075444,-0.4673 -0.226311,-0.6425 -0.1460137,-0.18 -0.4039592,-0.3358 -0.7738373,-0.4672 -0.2530847,-0.088 -0.8298119,-0.2433 -1.7301835,-0.4672 -1.1583257,-0.2872 -1.9710974,-0.64 -2.4383176,-1.0586 -0.65703295,-0.5889 -0.98554848,-1.3067 -0.98554755,-2.1536 -9.3e-7,-0.5451 0.15330632,-1.0536 0.45992219,-1.5258 0.31147996,-0.4769 0.75680106,-0.8395 1.33596446,-1.0877 0.5840249,-0.2482 1.2872914,-0.3723 2.1098018,-0.3723 1.3432586,0 2.3531397,0.2944 3.0296462,0.8833 0.6813576,0.5889 1.0390745,1.3749 1.0731517,2.358 l -2.1609042,0.095 c -0.092478,-0.5499 -0.2920206,-0.9441 -0.5986289,-1.1826 -0.3017538,-0.2433 -0.7568086,-0.365 -1.3651659,-0.365 -0.6278344,0 -1.119391,0.129 -1.4746711,0.3869 -0.2287475,0.1655 -0.3431196,0.3869 -0.3431166,0.6643 -3e-6,0.2531 0.1070688,0.4697 0.3212155,0.6498 0.2725429,0.2287 0.9344409,0.4672 1.9856958,0.7154 1.0512444,0.2482 1.8275144,0.5062 2.3288124,0.7738 0.5061496,0.2628 0.9003682,0.6254 1.182657,1.0878 0.2871381,0.4575 0.4307116,1.0245 0.4307208,1.701 -9.2e-6,0.6132 -0.1703506,1.1875 -0.5110246,1.7228 -0.3406915,0.5354 -0.8225143,0.9345 -1.4454698,1.1973 -0.62297,0.2579 -1.39924,0.3869 -2.3288123,0.3869 -1.3530022,0 -2.3920847,-0.3115 -3.1172504,-0.9344 -0.72516946,-0.6279 -1.15832325,-1.5404 -1.29946272,-2.7377" />
    <path
       style="fill:#000000;fill-opacity:1;stroke:none"
       d="m 20,1024.3622 c -6.627417,0 -12,5.3726 -12,12 0,6.6274 5.372583,12 12,12 6.627417,0 12,-5.3726 12,-12 0,-6.6274 -5.372583,-12 -12,-12 z m 0.5,3.4063 c 1.995956,0 3.597185,0.6014 4.84375,1.7812 0.741981,0.6975 1.316487,1.6941 1.6875,3 L 23.75,1033.331 c -0.192931,-0.8459 -0.602906,-1.5103 -1.21875,-2 -0.608447,-0.4898 -1.343205,-0.75 -2.21875,-0.75 -1.20946,0 -2.180671,0.4443 -2.9375,1.3125 -0.74942,0.8681 -1.125005,2.2747 -1.125,4.2187 -5e-6,2.0628 0.35175,3.5307 1.09375,4.4063 0.741989,0.8755 1.719051,1.3125 2.90625,1.3125 0.875545,0 1.619294,-0.2873 2.25,-0.8438 0.630684,-0.5565 1.10045,-1.4304 1.375,-2.625 l 3.1875,1 c -0.489732,1.7808 -1.294841,3.1318 -2.4375,4 -1.135264,0.8607 -2.592651,1.2813 -4.34375,1.2813 -2.166632,0 -3.948803,-0.7423 -5.34375,-2.2188 -1.394953,-1.484 -2.093751,-3.4952 -2.09375,-6.0625 -10e-7,-2.7157 0.722627,-4.8449 2.125,-6.3437 1.402367,-1.5063 3.245898,-2.25 5.53125,-2.25 z"
       id="path3880"
       inkscape:connector-curvature="0" />
  </g>
</svg>
