<?xml version="1.0" encoding="UTF-8" standalone="no"?>
<!-- Created with Inkscape (http://www.inkscape.org/) -->

<svg
   xmlns:dc="http://purl.org/dc/elements/1.1/"
   xmlns:cc="http://creativecommons.org/ns#"
   xmlns:rdf="http://www.w3.org/1999/02/22-rdf-syntax-ns#"
   xmlns:svg="http://www.w3.org/2000/svg"
   xmlns="http://www.w3.org/2000/svg"
   xmlns:sodipodi="http://sodipodi.sourceforge.net/DTD/sodipodi-0.dtd"
   xmlns:inkscape="http://www.inkscape.org/namespaces/inkscape"
   width="32"
   height="32"
   id="svg2"
   version="1.1"
   inkscape:version="0.48.2 r9819"
   sodipodi:docname="private_method.svg">
  <defs
     id="defs4" />
  <sodipodi:namedview
     id="base"
     pagecolor="#ffffff"
     bordercolor="#666666"
     borderopacity="1.0"
     inkscape:pageopacity="0.0"
     inkscape:pageshadow="2"
     inkscape:zoom="4.3359375"
     inkscape:cx="64.014585"
     inkscape:cy="39.156802"
     inkscape:document-units="px"
     inkscape:current-layer="layer1"
     showgrid="true"
     objecttolerance="10000"
     guidetolerance="10000"
     inkscape:window-width="1362"
     inkscape:window-height="724"
     inkscape:window-x="4"
     inkscape:window-y="0"
     inkscape:window-maximized="1">
    <inkscape:grid
       type="xygrid"
       id="grid2989"
       empspacing="5"
       visible="true"
       enabled="true"
       snapvisiblegridlinesonly="true"
       spacingx="1px"
       spacingy="1px"
       dotted="true" />
  </sodipodi:namedview>
  <metadata
     id="metadata7">
    <rdf:RDF>
      <cc:Work
         rdf:about="">
        <dc:format>image/svg+xml</dc:format>
        <dc:type
           rdf:resource="http://purl.org/dc/dcmitype/StillImage" />
        <dc:title></dc:title>
      </cc:Work>
    </rdf:RDF>
  </metadata>
  <g
     inkscape:label="Calque 1"
     inkscape:groupmode="layer"
     id="layer1"
     transform="translate(0,-1020.3622)">
    <path
       inkscape:connector-curvature="0"
       id="path3109"
       style="font-size:14.95112133px;font-style:normal;font-variant:normal;font-weight:bold;font-stretch:normal;text-align:center;line-height:125%;letter-spacing:0px;word-spacing:0px;text-anchor:middle;fill:#000000;fill-opacity:1;stroke:none;font-family:Arial;-inkscape-font-specification:Sans Bold"
       d="m 0.0605,1052.2896 0,-10.7024 3.46767,0 c 1.31405,0 2.17063,0.054 2.56972,0.1606 0.61322,0.1607 1.12668,0.5111 1.54037,1.0513 0.41368,0.5354 0.62052,1.2289 0.62053,2.0806 -10e-6,0.657 -0.11924,1.2094 -0.35771,1.6572 -0.23849,0.4477 -0.54267,0.8006 -0.91255,1.0585 -0.36502,0.2531 -0.73734,0.421 -1.11695,0.5037 -0.5159,0.1023 -1.26297,0.1534 -2.24121,0.1534 l -1.40897,0 0,4.0371 -2.1609,0 m 2.1609,-8.8919 0,3.037 1.18266,0 c 0.8517,0 1.42113,-0.056 1.70828,-0.1679 0.28714,-0.112 0.51102,-0.2872 0.67163,-0.5257 0.16547,-0.2384 0.24821,-0.5158 0.24822,-0.8322 -10e-6,-0.3893 -0.11438,-0.7106 -0.34312,-0.9637 -0.22875,-0.253 -0.51833,-0.4112 -0.86874,-0.4745 -0.25795,-0.049 -0.77628,-0.073 -1.55498,-0.073 l -1.04395,0" />
    <path
       inkscape:connector-curvature="0"
       id="path3105"
       style="font-size:14.95112133px;font-style:normal;font-variant:normal;font-weight:bold;font-stretch:normal;text-align:center;line-height:125%;letter-spacing:0px;word-spacing:0px;text-anchor:middle;fill:#000000;fill-opacity:1;stroke:none;font-family:Arial;-inkscape-font-specification:Sans Bold"
       d="m 0.08377,1027.7257 2.1025,-0.2044 c 0.12654,0.7057 0.38205,1.2241 0.76654,1.555 0.38935,0.331 0.91254,0.4964 1.56958,0.4964 0.69596,0 1.21915,-0.146 1.56957,-0.438 0.35528,-0.2969 0.53292,-0.6424 0.53293,-1.0366 -10e-6,-0.2531 -0.0754,-0.4673 -0.22631,-0.6425 -0.14602,-0.18 -0.40396,-0.3358 -0.77384,-0.4672 -0.25308,-0.088 -0.82981,-0.2433 -1.73018,-0.4672 -1.15833,-0.2872 -1.9711,-0.64 -2.43832,-1.0586 -0.65703,-0.5889 -0.98555,-1.3067 -0.98555,-2.1536 0,-0.5451 0.15331,-1.0536 0.45992,-1.5257 0.31148,-0.477 0.7568,-0.8396 1.33597,-1.0878 0.58402,-0.2482 1.28729,-0.3723 2.1098,-0.3723 1.34326,0 2.35314,0.2944 3.02965,0.8833 0.68135,0.5889 1.03907,1.3749 1.07315,2.358 l -2.16091,0.095 c -0.0925,-0.5499 -0.29202,-0.9441 -0.59863,-1.1826 -0.30175,-0.2433 -0.7568,-0.365 -1.36516,-0.365 -0.62784,0 -1.11939,0.129 -1.47467,0.3869 -0.22875,0.1655 -0.34312,0.3869 -0.34312,0.6643 0,0.2531 0.10707,0.4697 0.32122,0.6498 0.27254,0.2287 0.93444,0.4672 1.98569,0.7154 1.05125,0.2482 1.82752,0.5061 2.32881,0.7738 0.50615,0.2628 0.90037,0.6254 1.18266,1.0878 0.28714,0.4575 0.43071,1.0245 0.43072,1.701 -10e-6,0.6132 -0.17035,1.1875 -0.51102,1.7228 -0.34069,0.5354 -0.82252,0.9345 -1.44547,1.1973 -0.62297,0.2579 -1.39924,0.3869 -2.32881,0.3869 -1.35301,0 -2.39209,-0.3115 -3.11725,-0.9344 -0.72517,-0.6279 -1.15833,-1.5404 -1.29947,-2.7377" />
    <path
       id="path3149"
       d="m 1,1035.3622 30,0 c 0.554,0 1,0.446 1,1 0,0.554 -0.446,1 -1,1 l -30,0 c -0.554,0 -1,-0.446 -1,-1 0,-0.554 0.446,-1 1,-1 z"
       style="fill:#000000;fill-opacity:1;stroke:none"
       inkscape:connector-curvature="0" />
    <path
       id="path3151"
       d="m 23.92895,1027.8087 7.77817,7.7781 c 0.39174,0.3918 0.39174,1.0225 0,1.4143 -0.39174,0.3917 -1.02248,0.3917 -1.41421,0 l -7.77818,-7.7782 c -0.39173,-0.3918 -0.39173,-1.0225 0,-1.4142 0.39174,-0.3918 1.02248,-0.3918 1.41422,0 z"
       style="fill:#000000;fill-opacity:1;stroke:none"
       inkscape:connector-curvature="0" />
    <path
       id="path3153"
       d="m 23.92895,1044.8281 7.77817,-7.7782 c 0.39174,-0.3917 0.39174,-1.0225 0,-1.4142 -0.39174,-0.3917 -1.02248,-0.3917 -1.41421,0 l -7.77818,7.7782 c -0.39173,0.3917 -0.39173,1.0224 0,1.4142 0.39174,0.3917 1.02248,0.3917 1.41422,0 z"
       style="fill:#000000;fill-opacity:1;stroke:none"
       inkscape:connector-curvature="0" />
  </g>
</svg>
