<?xml version="1.0" encoding="UTF-8" standalone="no"?>
<!-- Created with Inkscape (http://www.inkscape.org/) -->

<svg
   xmlns:dc="http://purl.org/dc/elements/1.1/"
   xmlns:cc="http://creativecommons.org/ns#"
   xmlns:rdf="http://www.w3.org/1999/02/22-rdf-syntax-ns#"
   xmlns:svg="http://www.w3.org/2000/svg"
   xmlns="http://www.w3.org/2000/svg"
   xmlns:sodipodi="http://sodipodi.sourceforge.net/DTD/sodipodi-0.dtd"
   xmlns:inkscape="http://www.inkscape.org/namespaces/inkscape"
   width="32"
   height="32"
   id="svg2"
   version="1.1"
   inkscape:version="0.48.2 r9819"
   sodipodi:docname="class_and_method_shapes.svg">
  <defs
     id="defs4" />
  <sodipodi:namedview
     id="base"
     pagecolor="#ffffff"
     bordercolor="#666666"
     borderopacity="1.0"
     inkscape:pageopacity="0.0"
     inkscape:pageshadow="2"
     inkscape:zoom="6.1319416"
     inkscape:cx="64.014585"
     inkscape:cy="1.6584111"
     inkscape:document-units="px"
     inkscape:current-layer="layer1"
     showgrid="true"
     objecttolerance="10000"
     guidetolerance="10000"
     inkscape:window-width="1362"
     inkscape:window-height="724"
     inkscape:window-x="4"
     inkscape:window-y="0"
     inkscape:window-maximized="1">
    <inkscape:grid
       type="xygrid"
       id="grid2989"
       empspacing="5"
       visible="true"
       enabled="true"
       snapvisiblegridlinesonly="true"
       spacingx="1px"
       spacingy="1px"
       dotted="true" />
  </sodipodi:namedview>
  <metadata
     id="metadata7">
    <rdf:RDF>
      <cc:Work
         rdf:about="">
        <dc:format>image/svg+xml</dc:format>
        <dc:type
           rdf:resource="http://purl.org/dc/dcmitype/StillImage" />
        <dc:title />
      </cc:Work>
    </rdf:RDF>
  </metadata>
  <g
     inkscape:label="Calque 1"
     inkscape:groupmode="layer"
     id="layer1"
     transform="translate(0,-1020.3622)">
    <rect
       style="fill:#d3d7cf;fill-opacity:1;stroke:none"
       id="rect3790"
       width="32"
       height="32"
       x="0"
       y="0"
       transform="translate(0,1020.3622)" />
    <rect
       y="1020.3622"
       x="40"
       height="32"
       width="32"
       id="rect3796"
       style="fill:#d3d7cf;fill-opacity:1;stroke:none" />
    <rect
       style="fill:#d3d7cf;fill-opacity:1;stroke:none"
       id="rect3820"
       width="32"
       height="32"
       x="40"
       y="1060.3622" />
    <rect
       style="fill:#d3d7cf;fill-opacity:1;stroke:none"
       id="rect3830"
       width="32"
       height="32"
       x="80"
       y="1020.3622" />
    <rect
       y="1060.3622"
       x="80"
       height="32"
       width="32"
       id="rect3838"
       style="fill:#d3d7cf;fill-opacity:1;stroke:none" />
    <path
       inkscape:connector-curvature="0"
       id="path3029"
       style="font-size:14.95112133px;font-style:normal;font-variant:normal;font-weight:bold;font-stretch:normal;text-align:center;line-height:125%;letter-spacing:0px;word-spacing:0px;text-anchor:middle;fill:#000000;fill-opacity:1;stroke:none;font-family:Arial;-inkscape-font-specification:Sans Bold"
       d="m 80.060506,1092.2896 0,-10.7024 3.467667,0 c 1.314058,0 2.170631,0.054 2.569724,0.1606 0.613222,0.1607 1.126679,0.5111 1.540374,1.0513 0.413678,0.5354 0.620521,1.2289 0.62053,2.0806 -9e-6,0.657 -0.119248,1.2094 -0.357717,1.6572 -0.238487,0.4477 -0.542668,0.8006 -0.912544,1.0585 -0.365025,0.2531 -0.737343,0.421 -1.116954,0.5037 -0.515898,0.1023 -1.262966,0.1534 -2.241208,0.1534 l -1.408968,0 0,4.0371 -2.160904,0 m 2.160904,-8.8919 0,3.037 1.182657,0 c 0.851703,0 1.421129,-0.056 1.708282,-0.1679 0.287141,-0.112 0.511018,-0.2872 0.671633,-0.5257 0.165468,-0.2384 0.248205,-0.5158 0.248212,-0.8322 -7e-6,-0.3893 -0.114379,-0.7106 -0.343117,-0.9637 -0.228751,-0.253 -0.518331,-0.4112 -0.868742,-0.4745 -0.257951,-0.049 -0.776275,-0.073 -1.554975,-0.073 l -1.04395,0" />
    <path
       inkscape:connector-curvature="0"
       id="path3134"
       style="font-size:14.95112133px;font-style:normal;font-variant:normal;font-weight:bold;font-stretch:normal;text-align:center;line-height:125%;letter-spacing:0px;word-spacing:0px;text-anchor:middle;fill:#000000;fill-opacity:1;stroke:none;font-family:Arial;-inkscape-font-specification:Sans Bold"
       d="m 80.060506,1052.2896 0,-10.7024 3.467667,0 c 1.314058,0 2.170631,0.054 2.569724,0.1606 0.613222,0.1607 1.126679,0.5111 1.540374,1.0513 0.413678,0.5354 0.620521,1.2289 0.62053,2.0806 -9e-6,0.657 -0.119248,1.2094 -0.357717,1.6572 -0.238487,0.4477 -0.542668,0.8006 -0.912544,1.0585 -0.365025,0.2531 -0.737343,0.421 -1.116954,0.5037 -0.515898,0.1023 -1.262966,0.1534 -2.241208,0.1534 l -1.408968,0 0,4.0371 -2.160904,0 m 2.160904,-8.8919 0,3.037 1.182657,0 c 0.851703,0 1.421129,-0.056 1.708282,-0.1679 0.287141,-0.112 0.511018,-0.2872 0.671633,-0.5257 0.165468,-0.2384 0.248205,-0.5158 0.248212,-0.8322 -7e-6,-0.3893 -0.114379,-0.7106 -0.343117,-0.9637 -0.228751,-0.253 -0.518331,-0.4112 -0.868742,-0.4745 -0.257951,-0.049 -0.776275,-0.073 -1.554975,-0.073 l -1.04395,0" />
    <rect
       y="980.36218"
       x="0"
       height="32"
       width="32"
       id="rect3870"
       style="fill:#d3d7cf;fill-opacity:1;stroke:none" />
    <path
       inkscape:connector-curvature="0"
       id="path3082"
       style="font-size:14.95112133px;font-style:normal;font-variant:normal;font-weight:bold;font-stretch:normal;text-align:center;line-height:125%;letter-spacing:0px;word-spacing:0px;text-anchor:middle;fill:#000000;fill-opacity:1;stroke:none;font-family:Arial;-inkscape-font-specification:Sans Bold"
       d="m 0.08378008,987.72574 2.10250142,-0.20441 c 0.1265367,0.7057 0.3820488,1.22403 0.766537,1.55497 0.3893483,0.33096 0.9125397,0.49643 1.5695757,0.49643 0.6959613,0 1.2191527,-0.14601 1.5695758,-0.43802 0.3552769,-0.29688 0.5329186,-0.64243 0.5329257,-1.03665 -7.1e-6,-0.25308 -0.075444,-0.46722 -0.226311,-0.64243 -0.1460137,-0.18007 -0.4039592,-0.33582 -0.7738373,-0.46723 -0.2530847,-0.0876 -0.8298119,-0.24334 -1.7301835,-0.46722 -1.1583257,-0.28714 -1.9710974,-0.63999 -2.4383176,-1.05855 -0.65703295,-0.58889 -0.98554848,-1.30676 -0.98554755,-2.1536 -9.3e-7,-0.54509 0.15330632,-1.05368 0.45992219,-1.52578 0.31147996,-0.47694 0.75680106,-0.83953 1.33596446,-1.08775 0.5840249,-0.2482 1.2872914,-0.37231 2.1098018,-0.37232 1.3432586,10e-6 2.3531397,0.29446 3.0296462,0.88335 0.6813576,0.5889 1.0390745,1.3749 1.0731517,2.35801 l -2.1609042,0.0949 c -0.092478,-0.54995 -0.2920206,-0.94417 -0.5986289,-1.18265 -0.3017538,-0.24334 -0.7568086,-0.36501 -1.3651659,-0.36502 -0.6278344,10e-6 -1.119391,0.12898 -1.4746711,0.38692 -0.2287475,0.16548 -0.3431196,0.38692 -0.3431166,0.66433 -3e-6,0.25309 0.1070688,0.46966 0.3212155,0.64973 0.2725429,0.22875 0.9344409,0.46723 1.9856958,0.71544 1.0512444,0.24821 1.8275144,0.50616 2.3288124,0.77383 0.5061496,0.26282 0.9003682,0.6254 1.182657,1.08776 0.2871381,0.45749 0.4307116,1.02448 0.4307208,1.70098 -9.2e-6,0.61323 -0.1703506,1.18752 -0.5110246,1.72288 -0.3406915,0.53536 -0.8225143,0.93445 -1.4454698,1.19726 -0.62297,0.25794 -1.39924,0.38692 -2.3288123,0.38692 -1.3530022,0 -2.3920847,-0.31148 -3.1172504,-0.93445 -0.72516946,-0.62783 -1.15832325,-1.54037 -1.29946272,-2.73763" />
    <path
       style="fill:#000000;fill-opacity:1;stroke:none"
       d="m 20,984.3622 c -6.627417,0 -12,5.37259 -12,12 0,6.6274 5.372583,12 12,12 6.627417,0 12,-5.3726 12,-12 0,-6.62741 -5.372583,-12 -12,-12 z m 0.5,3.40625 c 1.995956,2e-5 3.597185,0.60149 4.84375,1.78125 0.741981,0.69749 1.316487,1.6941 1.6875,3 L 23.75,993.33095 c -0.192931,-0.84586 -0.602906,-1.51027 -1.21875,-2 -0.608447,-0.48971 -1.343205,-0.74999 -2.21875,-0.75 -1.20946,10e-6 -2.180671,0.44438 -2.9375,1.3125 -0.74942,0.86815 -1.125005,2.27473 -1.125,4.21875 -5e-6,2.06275 0.35175,3.53073 1.09375,4.4063 0.741989,0.8755 1.719051,1.3125 2.90625,1.3125 0.875545,0 1.619294,-0.2873 2.25,-0.8438 0.630684,-0.5565 1.10045,-1.43038 1.375,-2.625 l 3.1875,1 c -0.489732,1.7808 -1.294841,3.1318 -2.4375,4 -1.135264,0.8607 -2.592651,1.2813 -4.34375,1.2813 -2.166632,0 -3.948803,-0.7423 -5.34375,-2.2188 -1.394953,-1.484 -2.093751,-3.49519 -2.09375,-6.0625 -10e-7,-2.71569 0.722627,-4.8449 2.125,-6.34375 1.402367,-1.50623 3.245898,-2.24998 5.53125,-2.25 z"
       id="path3880"
       inkscape:connector-curvature="0" />
    <rect
       style="fill:#d3d7cf;fill-opacity:1;stroke:none"
       id="rect3070"
       width="32"
       height="32"
       x="40"
       y="980.36218" />
    <rect
       y="980.36218"
       x="80"
       height="32"
       width="32"
       id="rect3080"
       style="fill:#d3d7cf;fill-opacity:1;stroke:none" />
    <path
       inkscape:connector-curvature="0"
       id="path3093"
       style="font-size:14.95112133px;font-style:normal;font-variant:normal;font-weight:bold;font-stretch:normal;text-align:center;line-height:125%;letter-spacing:0px;word-spacing:0px;text-anchor:middle;fill:#000000;fill-opacity:1;stroke:none;font-family:Arial;-inkscape-font-specification:Sans Bold"
       d="m 80.060506,1012.2896 0,-10.7023 3.467667,0 c 1.314058,0 2.170631,0.053 2.569724,0.1606 0.613222,0.1606 1.126679,0.511 1.540374,1.0513 0.413678,0.5353 0.620521,1.2289 0.62053,2.0806 -9e-6,0.657 -0.119248,1.2094 -0.357717,1.6571 -0.238487,0.4478 -0.542668,0.8006 -0.912544,1.0586 -0.365025,0.2531 -0.737343,0.421 -1.116954,0.5037 -0.515898,0.1022 -1.262966,0.1533 -2.241208,0.1533 l -1.408968,0 0,4.0371 -2.160904,0 m 2.160904,-8.8918 0,3.0369 1.182657,0 c 0.851703,0 1.421129,-0.056 1.708282,-0.1679 0.287141,-0.1119 0.511018,-0.2871 0.671633,-0.5256 0.165468,-0.2385 0.248205,-0.5159 0.248212,-0.8322 -7e-6,-0.3894 -0.114379,-0.7106 -0.343117,-0.9637 -0.228751,-0.2531 -0.518331,-0.4112 -0.868742,-0.4745 -0.257951,-0.049 -0.776275,-0.073 -1.554975,-0.073 l -1.04395,0" />
    <g
       style="font-size:14.95112133px;font-style:normal;font-variant:normal;font-weight:bold;font-stretch:normal;text-align:center;line-height:125%;letter-spacing:0px;word-spacing:0px;text-anchor:middle;fill:#000000;fill-opacity:1;stroke:none;font-family:Arial;-inkscape-font-specification:Sans Bold"
       id="text3046">
      <path
         d="m 0.08378008,1027.7257 2.10250142,-0.2044 c 0.1265367,0.7057 0.3820488,1.2241 0.766537,1.555 0.3893483,0.331 0.9125397,0.4964 1.5695757,0.4964 0.6959613,0 1.2191527,-0.146 1.5695758,-0.438 0.3552769,-0.2969 0.5329186,-0.6424 0.5329257,-1.0366 -7.1e-6,-0.2531 -0.075444,-0.4673 -0.226311,-0.6425 -0.1460137,-0.18 -0.4039592,-0.3358 -0.7738373,-0.4672 -0.2530847,-0.088 -0.8298119,-0.2433 -1.7301835,-0.4672 -1.1583257,-0.2872 -1.9710974,-0.64 -2.4383176,-1.0586 -0.65703295,-0.5889 -0.98554848,-1.3067 -0.98554755,-2.1536 -9.3e-7,-0.5451 0.15330632,-1.0536 0.45992219,-1.5257 0.31147996,-0.477 0.75680106,-0.8396 1.33596446,-1.0878 0.5840249,-0.2482 1.2872914,-0.3723 2.1098018,-0.3723 1.3432586,0 2.3531397,0.2944 3.0296462,0.8833 0.6813576,0.5889 1.0390745,1.3749 1.0731517,2.358 l -2.1609042,0.095 c -0.092478,-0.5499 -0.2920206,-0.9441 -0.5986289,-1.1826 -0.3017538,-0.2433 -0.7568086,-0.365 -1.3651659,-0.365 -0.6278344,0 -1.119391,0.129 -1.4746711,0.3869 -0.2287475,0.1655 -0.3431196,0.3869 -0.3431166,0.6643 -3e-6,0.2531 0.1070688,0.4697 0.3212155,0.6498 0.2725429,0.2287 0.9344409,0.4672 1.9856958,0.7154 1.0512444,0.2482 1.8275144,0.5061 2.3288124,0.7738 0.5061496,0.2628 0.9003682,0.6254 1.182657,1.0878 0.2871381,0.4575 0.4307116,1.0245 0.4307208,1.701 -9.2e-6,0.6132 -0.1703506,1.1875 -0.5110246,1.7228 -0.3406915,0.5354 -0.8225143,0.9345 -1.4454698,1.1973 -0.62297,0.2579 -1.39924,0.3869 -2.3288123,0.3869 -1.3530022,0 -2.3920847,-0.3115 -3.1172504,-0.9344 -0.72516946,-0.6279 -1.15832325,-1.5404 -1.29946272,-2.7377"
         style=""
         id="path3073" />
    </g>
    <rect
       y="1020.3622"
       x="120"
       height="32"
       width="32"
       id="rect3050"
       style="fill:#d3d7cf;fill-opacity:1;stroke:none" />
    <path
       inkscape:connector-curvature="0"
       id="path3109"
       style="font-size:14.95112133px;font-style:normal;font-variant:normal;font-weight:bold;font-stretch:normal;text-align:center;line-height:125%;letter-spacing:0px;word-spacing:0px;text-anchor:middle;fill:#000000;fill-opacity:1;stroke:none;font-family:Arial;-inkscape-font-specification:Sans Bold"
       d="m 120.0605,1052.2896 0,-10.7024 3.46767,0 c 1.31405,0 2.17063,0.054 2.56972,0.1606 0.61322,0.1607 1.12668,0.5111 1.54037,1.0513 0.41368,0.5354 0.62052,1.2289 0.62053,2.0806 -1e-5,0.657 -0.11924,1.2094 -0.35771,1.6572 -0.23849,0.4477 -0.54267,0.8006 -0.91255,1.0585 -0.36502,0.2531 -0.73734,0.421 -1.11695,0.5037 -0.5159,0.1023 -1.26297,0.1534 -2.24121,0.1534 l -1.40897,0 0,4.0371 -2.1609,0 m 2.1609,-8.8919 0,3.037 1.18266,0 c 0.8517,0 1.42113,-0.056 1.70828,-0.1679 0.28714,-0.112 0.51102,-0.2872 0.67163,-0.5257 0.16547,-0.2384 0.24821,-0.5158 0.24822,-0.8322 -1e-5,-0.3893 -0.11438,-0.7106 -0.34312,-0.9637 -0.22875,-0.253 -0.51833,-0.4112 -0.86874,-0.4745 -0.25795,-0.049 -0.77628,-0.073 -1.55498,-0.073 l -1.04395,0" />
    <path
       inkscape:connector-curvature="0"
       id="path3105"
       style="font-size:14.95112133px;font-style:normal;font-variant:normal;font-weight:bold;font-stretch:normal;text-align:center;line-height:125%;letter-spacing:0px;word-spacing:0px;text-anchor:middle;fill:#000000;fill-opacity:1;stroke:none;font-family:Arial;-inkscape-font-specification:Sans Bold"
       d="m 120.08377,1027.7257 2.1025,-0.2044 c 0.12654,0.7057 0.38205,1.2241 0.76654,1.555 0.38935,0.331 0.91254,0.4964 1.56958,0.4964 0.69596,0 1.21915,-0.146 1.56957,-0.438 0.35528,-0.2969 0.53292,-0.6424 0.53293,-1.0366 -10e-6,-0.2531 -0.0754,-0.4673 -0.22631,-0.6425 -0.14602,-0.18 -0.40396,-0.3358 -0.77384,-0.4672 -0.25308,-0.088 -0.82981,-0.2433 -1.73018,-0.4672 -1.15833,-0.2872 -1.9711,-0.64 -2.43832,-1.0586 -0.65703,-0.5889 -0.98555,-1.3067 -0.98555,-2.1536 0,-0.5451 0.15331,-1.0536 0.45992,-1.5257 0.31148,-0.477 0.7568,-0.8396 1.33597,-1.0878 0.58402,-0.2482 1.28729,-0.3723 2.1098,-0.3723 1.34326,0 2.35314,0.2944 3.02965,0.8833 0.68135,0.5889 1.03907,1.3749 1.07315,2.358 l -2.16091,0.095 c -0.0925,-0.5499 -0.29202,-0.9441 -0.59863,-1.1826 -0.30175,-0.2433 -0.7568,-0.365 -1.36516,-0.365 -0.62784,0 -1.11939,0.129 -1.47467,0.3869 -0.22875,0.1655 -0.34312,0.3869 -0.34312,0.6643 0,0.2531 0.10707,0.4697 0.32122,0.6498 0.27254,0.2287 0.93444,0.4672 1.98569,0.7154 1.05125,0.2482 1.82752,0.5061 2.32881,0.7738 0.50615,0.2628 0.90037,0.6254 1.18266,1.0878 0.28714,0.4575 0.43071,1.0245 0.43072,1.701 -1e-5,0.6132 -0.17035,1.1875 -0.51102,1.7228 -0.34069,0.5354 -0.82252,0.9345 -1.44547,1.1973 -0.62297,0.2579 -1.39924,0.3869 -2.32881,0.3869 -1.35301,0 -2.39209,-0.3115 -3.11725,-0.9344 -0.72517,-0.6279 -1.15833,-1.5404 -1.29947,-2.7377" />
    <rect
       style="fill:#d3d7cf;fill-opacity:1;stroke:none"
       id="rect3066"
       width="32"
       height="32"
       x="120"
       y="980.36218" />
    <path
       inkscape:connector-curvature="0"
       id="path3101"
       style="font-size:14.95112133px;font-style:normal;font-variant:normal;font-weight:bold;font-stretch:normal;text-align:center;line-height:125%;letter-spacing:0px;word-spacing:0px;text-anchor:middle;fill:#000000;fill-opacity:1;stroke:none;font-family:Arial;-inkscape-font-specification:Sans Bold"
       d="m 120.08377,987.72574 2.1025,-0.20441 c 0.12654,0.7057 0.38205,1.22403 0.76654,1.55497 0.38935,0.33096 0.91254,0.49643 1.56958,0.49643 0.69596,0 1.21915,-0.14601 1.56957,-0.43802 0.35528,-0.29688 0.53292,-0.64243 0.53293,-1.03665 -10e-6,-0.25308 -0.0754,-0.46722 -0.22631,-0.64243 -0.14602,-0.18007 -0.40396,-0.33582 -0.77384,-0.46723 -0.25308,-0.0876 -0.82981,-0.24334 -1.73018,-0.46722 -1.15833,-0.28714 -1.9711,-0.63999 -2.43832,-1.05855 -0.65703,-0.58889 -0.98555,-1.30676 -0.98555,-2.1536 0,-0.54509 0.15331,-1.05368 0.45992,-1.52578 0.31148,-0.47694 0.7568,-0.83953 1.33597,-1.08775 0.58402,-0.2482 1.28729,-0.37231 2.1098,-0.37232 1.34326,10e-6 2.35314,0.29446 3.02965,0.88335 0.68135,0.5889 1.03907,1.3749 1.07315,2.35801 l -2.16091,0.0949 c -0.0925,-0.54995 -0.29202,-0.94417 -0.59863,-1.18265 -0.30175,-0.24334 -0.7568,-0.36501 -1.36516,-0.36502 -0.62784,10e-6 -1.11939,0.12898 -1.47467,0.38692 -0.22875,0.16548 -0.34312,0.38692 -0.34312,0.66433 0,0.25309 0.10707,0.46966 0.32122,0.64973 0.27254,0.22875 0.93444,0.46723 1.98569,0.71544 1.05125,0.24821 1.82752,0.50616 2.32881,0.77383 0.50615,0.26282 0.90037,0.6254 1.18266,1.08776 0.28714,0.45749 0.43071,1.02448 0.43072,1.70098 -1e-5,0.61323 -0.17035,1.18752 -0.51102,1.72288 -0.34069,0.53536 -0.82252,0.93445 -1.44547,1.19726 -0.62297,0.25794 -1.39924,0.38692 -2.32881,0.38692 -1.35301,0 -2.39209,-0.31148 -3.11725,-0.93445 -0.72517,-0.62783 -1.15833,-1.54037 -1.29947,-2.73763" />
    <path
       inkscape:connector-curvature="0"
       id="path3097"
       style="font-size:14.95112133px;font-style:normal;font-variant:normal;font-weight:bold;font-stretch:normal;text-align:center;line-height:125%;letter-spacing:0px;word-spacing:0px;text-anchor:middle;fill:#000000;fill-opacity:1;stroke:none;font-family:Arial;-inkscape-font-specification:Sans Bold"
       d="m 120.0605,1012.2896 0,-10.7023 3.46767,0 c 1.31405,0 2.17063,0.053 2.56972,0.1606 0.61322,0.1606 1.12668,0.511 1.54037,1.0513 0.41368,0.5353 0.62052,1.2289 0.62053,2.0806 -1e-5,0.657 -0.11924,1.2094 -0.35771,1.6571 -0.23849,0.4478 -0.54267,0.8006 -0.91255,1.0586 -0.36502,0.2531 -0.73734,0.421 -1.11695,0.5037 -0.5159,0.1022 -1.26297,0.1533 -2.24121,0.1533 l -1.40897,0 0,4.0371 -2.1609,0 m 2.1609,-8.8918 0,3.0369 1.18266,0 c 0.8517,0 1.42113,-0.056 1.70828,-0.1679 0.28714,-0.1119 0.51102,-0.2871 0.67163,-0.5256 0.16547,-0.2385 0.24821,-0.5159 0.24822,-0.8322 -1e-5,-0.3894 -0.11438,-0.7106 -0.34312,-0.9637 -0.22875,-0.2531 -0.51833,-0.4112 -0.86874,-0.4745 -0.25795,-0.049 -0.77628,-0.073 -1.55498,-0.073 l -1.04395,0" />
    <path
       style="fill:#000000;fill-opacity:1;stroke:none"
       d="M 0.99999994,1035.3622 31,1035.3622 c 0.554,0 1,0.446 1,1 0,0.554 -0.446,1 -1,1 l -30.00000006,0 C 0.44599997,1037.3622 0,1036.9162 0,1036.3622 c 0,-0.554 0.44599997,-1 0.99999994,-1 z"
       id="rect3043" />
    <path
       transform="matrix(0.70710678,0.70710678,-0.70710678,0.70710678,0,0)"
       style="fill:#000000;fill-opacity:1;stroke:none"
       d="m 743.6908,709.85016 11,0 c 0.554,0 1,0.446 1,1 0,0.554 -0.446,1 -1,1 l -11,0 c -0.554,0 -1,-0.446 -1,-1 0,-0.554 0.446,-1 1,-1 z"
       id="rect3047" />
    <path
       transform="matrix(0.70710678,-0.70710678,-0.70710678,-0.70710678,0,0)"
       style="fill:#000000;fill-opacity:1;stroke:none"
       d="m -721.8847,-755.72534 11,0 c 0.554,0 1,0.446 1,1 0,0.554 -0.446,1 -1,1 l -11,0 c -0.554,0 -1,-0.446 -1,-1 0,-0.554 0.446,-1 1,-1 z"
       id="rect3049" />
    <path
       style="fill:#000000;fill-opacity:1;stroke:none"
       d="m 41,1072.3622 27,0 c 0.554,0 1,0.446 1,1 0,0.554 -0.446,1 -1,1 l -27,0 c -0.554,0 -1,-0.446 -1,-1 0,-0.554 0.446,-1 1,-1 z"
       id="rect3058" />
    <path
       transform="matrix(0.70710678,0.70710678,-0.70710678,0.70710678,0,0)"
       style="fill:#000000;fill-opacity:1;stroke:none"
       d="m 800.25934,709.85016 11,0 c 0.554,0 1,0.446 1,1 0,0.554 -0.446,1 -1,1 l -11,0 c -0.554,0 -1,-0.446 -1,-1 0,-0.554 0.446,-1 1,-1 z"
       id="rect3060" />
    <path
       transform="matrix(0.70710678,-0.70710678,-0.70710678,-0.70710678,0,0)"
       style="fill:#000000;fill-opacity:1;stroke:none"
       d="m -721.8847,-812.29388 11,0 c 0.554,0 1,0.446 1,1 0,0.554 -0.446,1 -1,1 l -11,0 c -0.554,0 -1,-0.446 -1,-1 0,-0.554 0.446,-1 1,-1 z"
       id="rect3062" />
    <path
       style="fill:#000000;fill-opacity:1;stroke:none"
       d="m 41,1078.3622 27,0 c 0.554,0 1,0.446 1,1 0,0.554 -0.446,1 -1,1 l -27,0 c -0.554,0 -1,-0.446 -1,-1 0,-0.554 0.446,-1 1,-1 z"
       id="rect3067" />
    <path
       inkscape:connector-curvature="0"
       id="path3086"
       d="m 60,984.3622 c -6.627417,0 -12,5.37259 -12,12 0,6.6274 5.372583,12 12,12 6.627417,0 12,-5.3726 12,-12 0,-6.62741 -5.372583,-12 -12,-12 z m 0.5,3.40625 c 1.995956,2e-5 3.597185,0.60149 4.84375,1.78125 0.741981,0.69749 1.316487,1.6941 1.6875,3 L 63.75,993.33095 c -0.192931,-0.84586 -0.602906,-1.51027 -1.21875,-2 -0.608447,-0.48971 -1.343205,-0.74999 -2.21875,-0.75 -1.20946,10e-6 -2.180671,0.44438 -2.9375,1.3125 -0.74942,0.86815 -1.125005,2.27473 -1.125,4.21875 -5e-6,2.06275 0.35175,3.53073 1.09375,4.4063 0.741989,0.8755 1.719051,1.3125 2.90625,1.3125 0.875545,0 1.619294,-0.2873 2.25,-0.8438 0.630684,-0.5565 1.10045,-1.43038 1.375,-2.625 l 3.1875,1 c -0.489732,1.7808 -1.294841,3.1318 -2.4375,4 -1.135264,0.8607 -2.592651,1.2813 -4.34375,1.2813 -2.166632,0 -3.948803,-0.7423 -5.34375,-2.2188 -1.394953,-1.484 -2.093751,-3.49519 -2.09375,-6.0625 -10e-7,-2.71569 0.722627,-4.8449 2.125,-6.34375 1.402367,-1.50623 3.245898,-2.24998 5.53125,-2.25 z"
       style="fill:#000000;fill-opacity:1;stroke:none" />
    <path
       style="fill:#000000;fill-opacity:1;stroke:none"
       d="m 100,984.3622 c -6.627417,0 -12,5.37259 -12,12 0,6.6274 5.372583,12 12,12 6.62742,0 12,-5.3726 12,-12 0,-6.62741 -5.37258,-12 -12,-12 z m 0.5,3.40625 c 1.99596,2e-5 3.59718,0.60149 4.84375,1.78125 0.74198,0.69749 1.31649,1.6941 1.6875,3 l -3.28125,0.78125 c -0.19293,-0.84586 -0.60291,-1.51027 -1.21875,-2 -0.60845,-0.48971 -1.3432,-0.74999 -2.21875,-0.75 -1.20946,10e-6 -2.180671,0.44438 -2.9375,1.3125 -0.74942,0.86815 -1.125005,2.27473 -1.125,4.21875 -5e-6,2.06275 0.35175,3.53073 1.09375,4.4063 0.741989,0.8755 1.719051,1.3125 2.90625,1.3125 0.87555,0 1.61929,-0.2873 2.25,-0.8438 0.63068,-0.5565 1.10045,-1.43038 1.375,-2.625 l 3.1875,1 c -0.48973,1.7808 -1.29484,3.1318 -2.4375,4 -1.13526,0.8607 -2.59265,1.2813 -4.34375,1.2813 -2.166632,0 -3.948803,-0.7423 -5.34375,-2.2188 -1.394953,-1.484 -2.093751,-3.49519 -2.09375,-6.0625 -10e-7,-2.71569 0.722627,-4.8449 2.125,-6.34375 1.402367,-1.50623 3.245898,-2.24998 5.53125,-2.25 z"
       id="path3088"
       inkscape:connector-curvature="0" />
    <path
       inkscape:connector-curvature="0"
       id="path3090"
       d="m 140,984.3622 c -6.62742,0 -12,5.37259 -12,12 0,6.6274 5.37258,12 12,12 6.62742,0 12,-5.3726 12,-12 0,-6.62741 -5.37258,-12 -12,-12 z m 0.5,3.40625 c 1.99596,2e-5 3.59718,0.60149 4.84375,1.78125 0.74198,0.69749 1.31649,1.6941 1.6875,3 l -3.28125,0.78125 c -0.19293,-0.84586 -0.60291,-1.51027 -1.21875,-2 -0.60845,-0.48971 -1.3432,-0.74999 -2.21875,-0.75 -1.20946,10e-6 -2.18067,0.44438 -2.9375,1.3125 -0.74942,0.86815 -1.125,2.27473 -1.125,4.21875 0,2.06275 0.35175,3.53073 1.09375,4.4063 0.74199,0.8755 1.71905,1.3125 2.90625,1.3125 0.87555,0 1.61929,-0.2873 2.25,-0.8438 0.63068,-0.5565 1.10045,-1.43038 1.375,-2.625 l 3.1875,1 c -0.48973,1.7808 -1.29484,3.1318 -2.4375,4 -1.13526,0.8607 -2.59265,1.2813 -4.34375,1.2813 -2.16663,0 -3.9488,-0.7423 -5.34375,-2.2188 -1.39495,-1.484 -2.09375,-3.49519 -2.09375,-6.0625 0,-2.71569 0.72263,-4.8449 2.125,-6.34375 1.40237,-1.50623 3.2459,-2.24998 5.53125,-2.25 z"
       style="fill:#000000;fill-opacity:1;stroke:none" />
    <path
       id="path3137"
       d="m 41,1035.3622 30,0 c 0.554,0 1,0.446 1,1 0,0.554 -0.446,1 -1,1 l -30,0 c -0.554,0 -1,-0.446 -1,-1 0,-0.554 0.446,-1 1,-1 z"
       style="fill:#000000;fill-opacity:1;stroke:none"
       inkscape:connector-curvature="0" />
    <path
       id="path3139"
       d="m 63.928946,1027.8087 7.778175,7.7781 c 0.391737,0.3918 0.391737,1.0225 0,1.4143 -0.391738,0.3917 -1.022477,0.3917 -1.414214,0 l -7.778175,-7.7782 c -0.391737,-0.3918 -0.391737,-1.0225 0,-1.4142 0.391738,-0.3918 1.022477,-0.3918 1.414214,0 z"
       style="fill:#000000;fill-opacity:1;stroke:none"
       inkscape:connector-curvature="0" />
    <path
       id="path3141"
       d="m 63.928946,1044.8281 7.778175,-7.7782 c 0.391737,-0.3917 0.391737,-1.0225 0,-1.4142 -0.391738,-0.3917 -1.022477,-0.3917 -1.414214,0 l -7.778175,7.7782 c -0.391737,0.3917 -0.391737,1.0224 0,1.4142 0.391738,0.3917 1.022477,0.3917 1.414214,0 z"
       style="fill:#000000;fill-opacity:1;stroke:none"
       inkscape:connector-curvature="0" />
    <path
       inkscape:connector-curvature="0"
       style="fill:#000000;fill-opacity:1;stroke:none"
       d="m 81,1035.3622 30,0 c 0.554,0 1,0.446 1,1 0,0.554 -0.446,1 -1,1 l -30,0 c -0.554,0 -1,-0.446 -1,-1 0,-0.554 0.446,-1 1,-1 z"
       id="path3143" />
    <path
       inkscape:connector-curvature="0"
       style="fill:#000000;fill-opacity:1;stroke:none"
       d="m 103.92895,1027.8087 7.77817,7.7781 c 0.39174,0.3918 0.39174,1.0225 0,1.4143 -0.39174,0.3917 -1.02248,0.3917 -1.41421,0 l -7.77818,-7.7782 c -0.39173,-0.3918 -0.39173,-1.0225 0,-1.4142 0.39174,-0.3918 1.02248,-0.3918 1.41422,0 z"
       id="path3145" />
    <path
       inkscape:connector-curvature="0"
       style="fill:#000000;fill-opacity:1;stroke:none"
       d="m 103.92895,1044.8281 7.77817,-7.7782 c 0.39174,-0.3917 0.39174,-1.0225 0,-1.4142 -0.39174,-0.3917 -1.02248,-0.3917 -1.41421,0 l -7.77818,7.7782 c -0.39173,0.3917 -0.39173,1.0224 0,1.4142 0.39174,0.3917 1.02248,0.3917 1.41422,0 z"
       id="path3147" />
    <path
       id="path3149"
       d="m 121,1035.3622 30,0 c 0.554,0 1,0.446 1,1 0,0.554 -0.446,1 -1,1 l -30,0 c -0.554,0 -1,-0.446 -1,-1 0,-0.554 0.446,-1 1,-1 z"
       style="fill:#000000;fill-opacity:1;stroke:none"
       inkscape:connector-curvature="0" />
    <path
       id="path3151"
       d="m 143.92895,1027.8087 7.77817,7.7781 c 0.39174,0.3918 0.39174,1.0225 0,1.4143 -0.39174,0.3917 -1.02248,0.3917 -1.41421,0 l -7.77818,-7.7782 c -0.39173,-0.3918 -0.39173,-1.0225 0,-1.4142 0.39174,-0.3918 1.02248,-0.3918 1.41422,0 z"
       style="fill:#000000;fill-opacity:1;stroke:none"
       inkscape:connector-curvature="0" />
    <path
       id="path3153"
       d="m 143.92895,1044.8281 7.77817,-7.7782 c 0.39174,-0.3917 0.39174,-1.0225 0,-1.4142 -0.39174,-0.3917 -1.02248,-0.3917 -1.41421,0 l -7.77818,7.7782 c -0.39173,0.3917 -0.39173,1.0224 0,1.4142 0.39174,0.3917 1.02248,0.3917 1.41422,0 z"
       style="fill:#000000;fill-opacity:1;stroke:none"
       inkscape:connector-curvature="0" />
    <path
       id="path3159"
       d="m 81,1072.3622 27,0 c 0.554,0 1,0.446 1,1 0,0.554 -0.446,1 -1,1 l -27,0 c -0.554,0 -1,-0.446 -1,-1 0,-0.554 0.446,-1 1,-1 z"
       style="fill:#000000;fill-opacity:1;stroke:none"
       inkscape:connector-curvature="0" />
    <path
       id="path3161"
       d="m 103.92894,1067.8087 7.77818,7.7781 c 0.39174,0.3918 0.39174,1.0225 0,1.4143 -0.39174,0.3917 -1.02248,0.3917 -1.41421,0 l -7.77818,-7.7782 c -0.39174,-0.3918 -0.39174,-1.0225 0,-1.4142 0.39174,-0.3918 1.02248,-0.3918 1.41421,0 z"
       style="fill:#000000;fill-opacity:1;stroke:none"
       inkscape:connector-curvature="0" />
    <path
       id="path3163"
       d="m 103.92894,1084.8281 7.77818,-7.7782 c 0.39174,-0.3917 0.39174,-1.0225 0,-1.4142 -0.39174,-0.3917 -1.02248,-0.3917 -1.41421,0 l -7.77818,7.7782 c -0.39174,0.3917 -0.39174,1.0224 0,1.4142 0.39174,0.3917 1.02248,0.3917 1.41421,0 z"
       style="fill:#000000;fill-opacity:1;stroke:none"
       inkscape:connector-curvature="0" />
    <path
       id="path3165"
       d="m 81,1078.3622 27,0 c 0.554,0 1,0.446 1,1 0,0.554 -0.446,1 -1,1 l -27,0 c -0.554,0 -1,-0.446 -1,-1 0,-0.554 0.446,-1 1,-1 z"
       style="fill:#000000;fill-opacity:1;stroke:none"
       inkscape:connector-curvature="0" />
  </g>
</svg>
